<svg xmlns="http://www.w3.org/2000/svg" width="98" height="85.4" viewBox="0 0 98 85.4"><path d="M36.5 5.6V1.8h14.1v3.8M31.1 60.8H6.6s-4.9.1-4.9 4.9v19.7m44 0v-9.8h9.8v9.8m15.2-48.1H93s3.3-.3 3.3 4.5v43.6m-65.2 0V11.6s.4-4.4 5.4-4.4h29.3s4.3-.3 4.3 4.5v73.7m-21.4-23H60m-19.2 0h2.5m5.4-7.3H60m-19.2 0h2.5m5.4-7.3H60m-19.2 0h2.5m5.4-7.4H60m-19.2 0h2.5m5.4-7.3H60m-19.2 0h2.5m5.4-7.3H60m-19.2 0h2.5m5.4-7.4H60m-19.2 0h2.5" stroke="inherit" stroke-width="3.5" stroke-linejoin="round" stroke-linecap="round" stroke-miterlimit="10" fill="none"/></svg>