<svg xmlns="http://www.w3.org/2000/svg" width="449" height="63.6" viewBox="0 0 449 63.6"><path class="word" d="M67.9 33.3c-2.7 0-5.8-.2-8.8-.6-.1.7-.1 1.3-.1 1.9 0 7.8 3.3 11.5 9.5 11.5 3.9 0 7.8-.8 11.6-2.6.6.5 1.1 1.2 1.1 2 0 2.4-3.9 4.9-13.3 4.9-9.3 0-14.1-5-14.1-14.7 0-12.8 6.6-21.5 19-21.5 8 0 10.5 3.6 10.5 8.4 0 7.1-5.2 10.7-15.4 10.7zm4-15.1c-4.4 0-10.4 2.5-12.2 11 1.9.3 5.4.5 7.9.5 8.1 0 11-2.3 11-6.4-.1-3.2-1.8-5.1-6.7-5.1zm39 24.7c-2 4.7-6.3 7.3-12.6 7.3-6.6 0-10.7-3.9-10.7-13 0-15.1 8.4-22.9 17.7-22.9 5.1 0 7.4 1.2 8.2 4.2.4-3.1 1.1-4.1 3.2-4.1 1.2 0 1.8.3 2.6.9l-2.8 20.6c-.6 4.4-1 6.7-1 8.2 0 1.6.4 1.9 2.6 1.9.8 0 2.7-.4 3.5-.6.4.4.8 1.1.8 1.9 0 1.6-2 2.9-7.4 2.9-2.9 0-4.4-1.1-4.4-4.3 0-.9.1-1.7.3-3zm-4.7-24.7c-8.2 0-13.1 6.8-13.1 17.3 0 7.4 1.9 11 7.6 11 3.1 0 7.4-2.1 9.7-5.7l2.9-21c-1.8-1.1-4.3-1.6-7.1-1.6zm36.8 3.9c-8.4 12-13 15.1-16.7 15.1-1.7 0-2.8-1-2.5-2.9 6.3-2.5 10.4-7.3 20.1-20.3 2-2.7 4-4.3 6.8-4.3 1.8 0 3.1 1 2.7 3.1-5.5 1.3-6.5 3.5-6.5 5.9 0 5.2 4.7 14.8 4.7 20 0 6.7-4.9 11.5-15.6 11.5-5.9 0-9.7-1.9-9.7-4.9 0-.9.5-1.7 1.1-2 2.7 1.7 6.6 2.5 9.7 2.5 7 0 9.3-2.1 9.3-6.6.1-4.3-2.9-11.2-3.4-17.1zm29.8 28.2c-9.1 0-13.7-5-13.7-15 0-12.4 7.7-21 18.8-21 10.2 0 13.8 5.8 13.8 14.5 0 12.7-6.8 21.5-18.9 21.5zm3.9-32c-7.8 0-12.5 8-12.5 15.9 0 8.3 2.8 12.1 10 12.1 8.1 0 12.4-8.3 12.4-16 .1-7.8-2.8-12-9.9-12zM228 45.9c.8 0 2.7-.4 3.5-.6.4.4.7 1.1.7 1.9 0 1.6-2 2.9-7.4 2.9-3.3 0-5.1-1.1-5.1-4.5 0-1.3.2-3.1.6-5.5 0 0 2.7-15 2.7-16.8.3-2.8-1.2-4.5-5.3-4.5-3.7 0-8.7 2.9-11.8 8.4l-.7 4.8c-.8 5.8-2.2 16.1-2.2 17.7-.5.3-1.2.4-2.6.4-2.3 0-2.6-1.1-2.6-2.7 0-2.5.6-5 .9-7.4l2.7-21-5.3.2c-.4-.4-.6-.8-.6-1.5 0-2 2-2.8 7.7-2.8 3.4 0 4.3.7 3.8 3.3l-1.2 5.5c1.8-5.4 7.7-9.1 14.1-9.1 6.5 0 9.2 3.8 8.3 9.4L226 37.7c-.3 1.9-.4 3-.6 4-.1.9-.2 1.5-.2 2.3.2 1.6.5 1.9 2.8 1.9zm39.6-26.1c-2.9 0-5.9-.1-8.9-.1l-2.3 18.7c-.2 1.1-.3 2.4-.3 3.6 0 3.5 1.3 4.3 4.6 4.3 2.9 0 6.5-1.7 8.9-3.1.9.3 1.4.9 1.4 1.9 0 4.6-9.5 5.4-12.7 5.4-5.5 0-8-1.9-8-7.5 0-1.1.1-2.1.3-3.1.8-6.7 1.7-13.5 2.7-20.2l-4.5.1c-.4-.4-.5-.9-.5-1.5 0-2.1 1.9-2.7 5.7-2.8l.7-6.7c.2-1.8 1.1-3.5 3-3.5 1 0 2.1.3 2.9.8l-1.4 9.4 12.8-.1c.3.4.4 1.2.4 1.7 0 2-1.3 2.7-4.8 2.7zm20.9 30.5c-9.1 0-13.7-5-13.7-15 0-12.4 7.7-21 18.8-21 10.2 0 13.8 5.8 13.8 14.5-.1 12.7-6.9 21.5-18.9 21.5zm3.9-32c-7.8 0-12.5 8-12.5 15.9 0 8.3 2.8 12.1 10 12.1 8.1 0 12.4-8.3 12.4-16 0-7.8-2.9-12-9.9-12zm67.6-7.4c-3.3-1.4-6.9-2.3-11.3-2.3-14.1 0-20.6 9.2-20.6 23.1 0 9.7 4.9 14.3 14.1 14.3 3.8 0 7.4-.5 10.6-1.9l1.2-9h-9c-.3-.4-.4-.9-.4-1.5 0-1.9 1.8-2.9 8.5-2.9 6.1 0 6.6.8 6.4 2.5l-1.8 14.1c-1.5 11.5-5.8 16.3-13 16.3-2.9 0-3.6-.9-3.6-2.5 0-.7.2-1.4.6-1.9 5.1-.2 7.8-1.1 8.5-2.4.9-1.9 1.3-3.4 2.1-9.3-2 1.8-6.1 2.7-11.6 2.7-11.1 0-18.3-5.7-18.3-17.6 0-17.3 9.6-28.7 27-28.7 7.2 0 12 1.9 12 4.3.1 1.2-.5 2.2-1.4 2.7zm13.8 39.2c-3.3 0-5-1.1-5-4.5 0-1.2.2-3.1.5-5.5l3-21-5.6.2c-.4-.4-.6-.8-.6-1.4 0-2 2-2.9 7.7-2.9 3.4 0 4.3.7 3.9 3.3L375.9 32c-.8 5.8-1.5 10.6-1.5 12.1 0 1.6.4 1.9 2.6 1.9.8 0 2.7-.4 3.5-.6.4.4.7 1.1.7 1.9-.1 1.5-2.1 2.8-7.4 2.8zm3.5-43.5c-2 0-3.4-.8-3.4-2.9 0-2.1 1.6-3.6 4.3-3.6 2.3 0 3.2 1.2 3.2 2.9.1 2.1-1.4 3.6-4.1 3.6zm15.6 42.6l-5-30-4 .1c-.4-.4-.6-.8-.6-1.4 0-1.9 1.2-2.8 5.6-2.8 3.4 0 3.8.7 4.2 3.3l4.6 27.8c11.2-14.3 12.9-17.4 12.9-23.7 0-2.9-.2-5.5-.4-7.4.5-.4 1.3-.5 2.2-.5 2.8 0 3.5 2.1 3.5 6.2 0 8.1-1.2 11.9-14.7 27.4-1.5 1.7-2.2 2.4-5.1 2.4-1.4-.3-2.4-.7-3.2-1.4zm40.7-15.9c-2.7 0-5.8-.2-8.8-.6-.1.7-.1 1.3-.1 2 0 7.8 3.3 11.5 9.5 11.5 3.9 0 7.8-.8 11.6-2.6.6.5 1.1 1.2 1.1 2 0 2.4-3.9 4.9-13.3 4.9-9.3 0-14.1-5-14.1-14.7 0-12.8 6.6-21.5 19-21.5 8 0 10.5 3.6 10.5 8.4 0 7-5.1 10.6-15.4 10.6zm4-15.1c-4.4 0-10.4 2.5-12.2 11 1.9.3 5.4.5 7.9.5 8.1 0 11-2.3 11-6.4-.1-3.2-1.8-5.1-6.7-5.1zM42.7 54.4c-2.7 0-3.8-.6-4.6-4-3.2-12.8-5-18.2-6.8-19.1-.6.1-1.8.1-2.2.1-2.6 0-4.3-.2-6.8-.5l-2.5 18.9c-.6.1-1.6.2-2.8.2-2 0-2.7-.7-2.7-2.4 0-1.1.9-8.9 2-17.8 1-7.2 3-22.2 3-22.2C7 7.9 5.2 8.8 3.8 16.8c-2.5.6-4.1-.1-3.8-3.5C.9 5 8.2 3.2 23.4 3.2c20 0 25.1 4.5 25.1 12.5 0 7.9-4.3 12.5-12 14.7 2.5 1.8 4.3 7.4 7 17.7.3 1.1 1.1 1.4 2.9 1.4.8 0 3.2-.4 4-.7.8.4 1 .9 1 1.8 0 1.9-3.3 3.8-8.7 3.8zM25 7.5l-2.4 19.4c2.7.3 5.2.4 7.9.4 8.1 0 12.6-4.2 12.6-10.7 0-6.8-4.3-8.7-18.1-9.1z"/></svg>