<?xml version="1.0" encoding="utf-8"?>
<!-- Generator: Adobe Illustrator 17.1.0, SVG Export Plug-In . SVG Version: 6.00 Build 0)  -->
<!DOCTYPE svg PUBLIC "-//W3C//DTD SVG 1.1//EN" "http://www.w3.org/Graphics/SVG/1.1/DTD/svg11.dtd">
<svg version="1.1" id="Layer_1" xmlns="http://www.w3.org/2000/svg" xmlns:xlink="http://www.w3.org/1999/xlink" x="0px" y="0px"
	 width="449px" height="63.6px" viewBox="0 0 449 63.6" enable-background="new 0 0 449 63.6" xml:space="preserve">
<path fill="none" d="M67.9,33.3c-2.7,0-5.8-0.2-8.8-0.6C59,33.4,59,34,59,34.6c0,7.8,3.3,11.5,9.5,11.5c3.9,0,7.8-0.8,11.6-2.6
	c0.6,0.5,1.1,1.2,1.1,2c0,2.4-3.9,4.9-13.3,4.9c-9.3,0-14.1-5-14.1-14.7c0-12.8,6.6-21.5,19-21.5c8,0,10.5,3.6,10.5,8.4
	C83.3,29.7,78.1,33.3,67.9,33.3z M71.9,18.2c-4.4,0-10.4,2.5-12.2,11c1.9,0.3,5.4,0.5,7.9,0.5c8.1,0,11-2.3,11-6.4
	C78.5,20.1,76.8,18.2,71.9,18.2z"/>
<path fill="none" d="M110.9,42.9c-2,4.7-6.3,7.3-12.6,7.3c-6.6,0-10.7-3.9-10.7-13c0-15.1,8.4-22.9,17.7-22.9c5.1,0,7.4,1.2,8.2,4.2
	c0.4-3.1,1.1-4.1,3.2-4.1c1.2,0,1.8,0.3,2.6,0.9l-2.8,20.6c-0.6,4.4-1,6.7-1,8.2c0,1.6,0.4,1.9,2.6,1.9c0.8,0,2.7-0.4,3.5-0.6
	c0.4,0.4,0.8,1.1,0.8,1.9c0,1.6-2,2.9-7.4,2.9c-2.9,0-4.4-1.1-4.4-4.3C110.6,45,110.7,44.2,110.9,42.9z M106.2,18.2
	c-8.2,0-13.1,6.8-13.1,17.3c0,7.4,1.9,11,7.6,11c3.1,0,7.4-2.1,9.7-5.7l2.9-21C111.5,18.7,109,18.2,106.2,18.2z"/>
<path fill="none" d="M143,22.1c-8.4,12-13,15.1-16.7,15.1c-1.7,0-2.8-1-2.5-2.9c6.3-2.5,10.4-7.3,20.1-20.3c2-2.7,4-4.3,6.8-4.3
	c1.8,0,3.1,1,2.7,3.1c-5.5,1.3-6.5,3.5-6.5,5.9c0,5.2,4.7,14.8,4.7,20c0,6.7-4.9,11.5-15.6,11.5c-5.9,0-9.7-1.9-9.7-4.9
	c0-0.9,0.5-1.7,1.1-2c2.7,1.7,6.6,2.5,9.7,2.5c7,0,9.3-2.1,9.3-6.6C146.5,34.9,143.5,28,143,22.1z"/>
<path fill="none" d="M172.8,50.3c-9.1,0-13.7-5-13.7-15c0-12.4,7.7-21,18.8-21c10.2,0,13.8,5.8,13.8,14.5
	C191.7,41.5,184.9,50.3,172.8,50.3z M176.7,18.3c-7.8,0-12.5,8-12.5,15.9c0,8.3,2.8,12.1,10,12.1c8.1,0,12.4-8.3,12.4-16
	C186.7,22.5,183.8,18.3,176.7,18.3z"/>
<path fill="none" d="M228,45.9c0.8,0,2.7-0.4,3.5-0.6c0.4,0.4,0.7,1.1,0.7,1.9c0,1.6-2,2.9-7.4,2.9c-3.3,0-5.1-1.1-5.1-4.5
	c0-1.3,0.2-3.1,0.6-5.5c0,0,2.7-15,2.7-16.8c0.3-2.8-1.2-4.5-5.3-4.5c-3.7,0-8.7,2.9-11.8,8.4l-0.7,4.8c-0.8,5.8-2.2,16.1-2.2,17.7
	c-0.5,0.3-1.2,0.4-2.6,0.4c-2.3,0-2.6-1.1-2.6-2.7c0-2.5,0.6-5,0.9-7.4l2.7-21l-5.3,0.2c-0.4-0.4-0.6-0.8-0.6-1.5c0-2,2-2.8,7.7-2.8
	c3.4,0,4.3,0.7,3.8,3.3l-1.2,5.5c1.8-5.4,7.7-9.1,14.1-9.1c6.5,0,9.2,3.8,8.3,9.4l-2.2,13.7c-0.3,1.9-0.4,3-0.6,4
	c-0.1,0.9-0.2,1.5-0.2,2.3C225.4,45.6,225.7,45.9,228,45.9z"/>
<path fill="none" d="M267.6,19.8c-2.9,0-5.9-0.1-8.9-0.1l-2.3,18.7c-0.2,1.1-0.3,2.4-0.3,3.6c0,3.5,1.3,4.3,4.6,4.3
	c2.9,0,6.5-1.7,8.9-3.1c0.9,0.3,1.4,0.9,1.4,1.9c0,4.6-9.5,5.4-12.7,5.4c-5.5,0-8-1.9-8-7.5c0-1.1,0.1-2.1,0.3-3.1
	c0.8-6.7,1.7-13.5,2.7-20.2l-4.5,0.1c-0.4-0.4-0.5-0.9-0.5-1.5c0-2.1,1.9-2.7,5.7-2.8l0.7-6.7c0.2-1.8,1.1-3.5,3-3.5
	c1,0,2.1,0.3,2.9,0.8l-1.4,9.4l12.8-0.1c0.3,0.4,0.4,1.2,0.4,1.7C272.4,19.1,271.1,19.8,267.6,19.8z"/>
<path fill="none" d="M288.5,50.3c-9.1,0-13.7-5-13.7-15c0-12.4,7.7-21,18.8-21c10.2,0,13.8,5.8,13.8,14.5
	C307.3,41.5,300.5,50.3,288.5,50.3z M292.4,18.3c-7.8,0-12.5,8-12.5,15.9c0,8.3,2.8,12.1,10,12.1c8.1,0,12.4-8.3,12.4-16
	C302.3,22.5,299.4,18.3,292.4,18.3z"/>
<path fill="none" d="M360,10.9c-3.3-1.4-6.9-2.3-11.3-2.3c-14.1,0-20.6,9.2-20.6,23.1c0,9.7,4.9,14.3,14.1,14.3
	c3.8,0,7.4-0.5,10.6-1.9l1.2-9h-9c-0.3-0.4-0.4-0.9-0.4-1.5c0-1.9,1.8-2.9,8.5-2.9c6.1,0,6.6,0.8,6.4,2.5l-1.8,14.1
	c-1.5,11.5-5.8,16.3-13,16.3c-2.9,0-3.6-0.9-3.6-2.5c0-0.7,0.2-1.4,0.6-1.9c5.1-0.2,7.8-1.1,8.5-2.4c0.9-1.9,1.3-3.4,2.1-9.3
	c-2,1.8-6.1,2.7-11.6,2.7c-11.1,0-18.3-5.7-18.3-17.6c0-17.3,9.6-28.7,27-28.7c7.2,0,12,1.9,12,4.3C361.5,9.4,360.9,10.4,360,10.9z"
	/>
<path fill="none" d="M373.8,50.1c-3.3,0-5-1.1-5-4.5c0-1.2,0.2-3.1,0.5-5.5l3-21l-5.6,0.2c-0.4-0.4-0.6-0.8-0.6-1.4
	c0-2,2-2.9,7.7-2.9c3.4,0,4.3,0.7,3.9,3.3L375.9,32c-0.8,5.8-1.5,10.6-1.5,12.1c0,1.6,0.4,1.9,2.6,1.9c0.8,0,2.7-0.4,3.5-0.6
	c0.4,0.4,0.7,1.1,0.7,1.9C381.1,48.8,379.1,50.1,373.8,50.1z M377.3,6.6c-2,0-3.4-0.8-3.4-2.9c0-2.1,1.6-3.6,4.3-3.6
	c2.3,0,3.2,1.2,3.2,2.9C381.5,5.1,380,6.6,377.3,6.6z"/>
<path fill="none" d="M392.9,49.2l-5-30l-4,0.1c-0.4-0.4-0.6-0.8-0.6-1.4c0-1.9,1.2-2.8,5.6-2.8c3.4,0,3.8,0.7,4.2,3.3l4.6,27.8
	c11.2-14.3,12.9-17.4,12.9-23.7c0-2.9-0.2-5.5-0.4-7.4c0.5-0.4,1.3-0.5,2.2-0.5c2.8,0,3.5,2.1,3.5,6.2c0,8.1-1.2,11.9-14.7,27.4
	c-1.5,1.7-2.2,2.4-5.1,2.4C394.7,50.3,393.7,49.9,392.9,49.2z"/>
<path fill="none" d="M433.6,33.3c-2.7,0-5.8-0.2-8.8-0.6c-0.1,0.7-0.1,1.3-0.1,2c0,7.8,3.3,11.5,9.5,11.5c3.9,0,7.8-0.8,11.6-2.6
	c0.6,0.5,1.1,1.2,1.1,2c0,2.4-3.9,4.9-13.3,4.9c-9.3,0-14.1-5-14.1-14.7c0-12.8,6.6-21.5,19-21.5c8,0,10.5,3.6,10.5,8.4
	C449,29.7,443.9,33.3,433.6,33.3z M437.6,18.2c-4.4,0-10.4,2.5-12.2,11c1.9,0.3,5.4,0.5,7.9,0.5c8.1,0,11-2.3,11-6.4
	C444.2,20.1,442.5,18.2,437.6,18.2z"/>
<path fill="none" d="M42.7,54.4c-2.7,0-3.8-0.6-4.6-4c-3.2-12.8-5-18.2-6.8-19.1c-0.6,0.1-1.8,0.1-2.2,0.1c-2.6,0-4.3-0.2-6.8-0.5
	l-2.5,18.9C19.2,49.9,18.2,50,17,50c-2,0-2.7-0.7-2.7-2.4c0-1.1,0.9-8.9,2-17.8c1-7.2,3-22.2,3-22.2C7,7.9,5.2,8.8,3.8,16.8
	c-2.5,0.6-4.1-0.1-3.8-3.5C0.9,5,8.2,3.2,23.4,3.2c20,0,25.1,4.5,25.1,12.5c0,7.9-4.3,12.5-12,14.7c2.5,1.8,4.3,7.4,7,17.7
	c0.3,1.1,1.1,1.4,2.9,1.4c0.8,0,3.2-0.4,4-0.7c0.8,0.4,1,0.9,1,1.8C51.4,52.5,48.1,54.4,42.7,54.4z M25,7.5l-2.4,19.4
	c2.7,0.3,5.2,0.4,7.9,0.4c8.1,0,12.6-4.2,12.6-10.7C43.1,9.8,38.8,7.9,25,7.5z"/>
</svg>
